<svg xmlns="http://www.w3.org/2000/svg" viewBox="0 0 224.89 66.52"><defs><style>.cls-1{fill:#63b9dc;}.cls-2{fill:#fff;}.cls-3{fill:#35b0d6;}.cls-4{fill:#54b4d9;}.cls-5{fill:#4cb2d8;}</style></defs><g id="Capa_2" data-name="Capa 2"><g id="Capa_1-2" data-name="Capa 1"><path class="cls-1" d="M28.39,66.15a27.44,27.44,0,0,1-6.64-1.93,32.92,32.92,0,0,1-14-10.53,2.34,2.34,0,0,1-.58-1.82,1.15,1.15,0,0,1,2-.85,7.29,7.29,0,0,1,1.3,1.47,30.23,30.23,0,0,0,13.49,9.43,29.45,29.45,0,0,0,12.34,1.47,30.36,30.36,0,0,0,13.9-4.68,29,29,0,0,0,11.4-13.6,31.41,31.41,0,0,0,2.61-12.83,36.59,36.59,0,0,0-1.1-7.57c-.22-.94-.28-1.78.57-2.42s1.58-.28,1.91.68C67,26.92,67,31,66.79,35.1a32,32,0,0,1-2.23,10.12A33.45,33.45,0,0,1,52.48,60.5a31.75,31.75,0,0,1-12,5.33A34.79,34.79,0,0,1,28.39,66.15Z"/><path class="cls-2" d="M0,45.14c1.82.59.82,1.19,0,1.79Z"/><path class="cls-3" d="M123.07,33.7h-8.25c-.72,0-1.6,0-1.55-1s.88-.81,1.54-.81h16.85c.7,0,1.6-.1,1.54,1-.06.89-.88.82-1.53.82Z"/><path class="cls-4" d="M4,51.47c-1.44-1.17-1.84-3-1.09-4.08s5.33-7.53,6.74-9.48c3.07-4.21,5.89-8.58,8.93-12.81,2.08-2.9,4.58-2.79,6.85,0,.59.73,7.65,11,9.49,13.8,0,0,.09.08.11.13.56,1.13,2.36,2.25,1.65,3.21s-2.7.48-4.07.28c-1.61-.23-1.34-.47-2.92-3L23.13,29.25c-.78-1.23-1.5-1.11-2.18-.12Q13.51,39.8,6.15,50.5C6.08,50.59,5.08,52.31,4,51.47Z"/><path class="cls-5" d="M31.7,25c-.44-.53-.64-1,.05-1.5s3.54-.14,4.13.73c2.68,3.9,8.27,12.4,8.48,12.67.85,1.06,1.58,1.51,2.58,0,2.7-4,5.53-8,8.3-12Q58.62,20,62,15.09c.28-.42.52-.79,1.1-.7s.63.58.89,1c1.18,1.73.32,3.07-.66,4.46C58.7,26.38,54.13,33,49.51,39.51a11.81,11.81,0,0,1-2.36,2.43c-1.16.91-3.3.38-4.27-.9C42.17,40.1,32.27,25.68,31.7,25Z"/><path class="cls-3" d="M124.33,18.65c-3,0-6.09,0-9.14,0-.7,0-1.61.1-1.56-.95.05-.9.87-.82,1.53-.82h18.09c.78,0,1.63.18,1.67,1,.05,1.06-1,.79-1.64.8-3,0-6,0-9,0Z"/><path class="cls-3" d="M123.46,48.7h-9.14c-.7,0-1.61.1-1.55-1s.86-.82,1.52-.82h18.09c.79,0,1.63.18,1.67,1,0,1.06-1,.79-1.63.8-3,0-6,0-9,0Z"/><path class="cls-4" d="M103.26,17.3a.79.79,0,0,1,.25.6V47.5a.91.91,0,0,1-.3.74,1.15,1.15,0,0,1-.74.24,1,1,0,0,1-.8-.36L79.34,20.51V47.72a.68.68,0,0,1-.27.54,1,1,0,0,1-.68.22,1,1,0,0,1-.69-.22.69.69,0,0,1-.25-.54V18a.81.81,0,0,1,.28-.68,1,1,0,0,1,.62-.22,1,1,0,0,1,.74.31l22.53,27.8V17.9a.75.75,0,0,1,.28-.6,1,1,0,0,1,1.36,0Z"/><path class="cls-4" d="M163.75,47a.8.8,0,0,1,.31.63.77.77,0,0,1-.31.65,1.06,1.06,0,0,1-.71.25H144.32a1,1,0,0,1-.73-.27.84.84,0,0,1-.28-.63V18a.79.79,0,0,1,.3-.62,1.22,1.22,0,0,1,1.53,0,.8.8,0,0,1,.31.62V46.7H163A1,1,0,0,1,163.75,47Z"/><path class="cls-4" d="M199.29,47.89a.73.73,0,0,1-.31.63,1.34,1.34,0,0,1-.79.22,1.4,1.4,0,0,1-.66-.15.87.87,0,0,1-.4-.43l-4.42-9.25.06.09H175.14l-4.27,9.16a.94.94,0,0,1-.94.58,1.21,1.21,0,0,1-.77-.22.84.84,0,0,1-.34-.54.68.68,0,0,1,.05-.45L183,17.8a1,1,0,0,1,.4-.47,1.43,1.43,0,0,1,.6-.11,1,1,0,0,1,1.05.58l14.16,29.73A1.15,1.15,0,0,1,199.29,47.89ZM176,37.2h15.94l-8-16.93Z"/><path class="cls-4" d="M224.61,17.3a.75.75,0,0,1,.28.6.8.8,0,0,1-.26.63,1,1,0,0,1-.67.23H213.57V47.59a.84.84,0,0,1-.28.62.92.92,0,0,1-.65.27.9.9,0,0,1-.68-.27.85.85,0,0,1-.26-.62V18.76H201.31a1,1,0,0,1-.65-.25.77.77,0,0,1-.28-.61.75.75,0,0,1,.28-.6.93.93,0,0,1,.65-.25H224A.93.93,0,0,1,224.61,17.3Z"/><path class="cls-4" d="M33.36,21.59h0A1.69,1.69,0,0,1,35,23.27V44a.51.51,0,0,1-.51.51h0A1.58,1.58,0,0,1,33,42.9V22a.41.41,0,0,1,.41-.41Z" transform="translate(-12.79 25.43) rotate(-34.94)"/><path class="cls-1" d="M38.72.37a26.6,26.6,0,0,1,6.64,1.92,32.73,32.73,0,0,1,14,10.5,2.31,2.31,0,0,1,.59,1.82,1.15,1.15,0,0,1-1.95.85A7.29,7.29,0,0,1,56.69,14a30.17,30.17,0,0,0-13.51-9.4A29.44,29.44,0,0,0,30.84,3.13,30.46,30.46,0,0,0,17,7.83,29.15,29.15,0,0,0,5.57,21.45,31.34,31.34,0,0,0,3,34.29,36.62,36.62,0,0,0,4.1,41.86c.22.94.28,1.78-.57,2.42S2,44.56,1.61,43.6c-1.39-4-1.43-8-1.24-12.12A32,32,0,0,1,2.58,21.35,33.49,33.49,0,0,1,14.63,6.05,32,32,0,0,1,26.61.7,34.94,34.94,0,0,1,38.72.37Z"/></g></g></svg>